<svg width="29" height="18" viewBox="0 0 29 18" fill="none" xmlns="http://www.w3.org/2000/svg">
<path d="M25.0379 2.40885C24.9462 2.56068 24.4759 3.09363 23.9732 3.58041C23.1212 4.41781 23.0754 4.50859 23.0754 5.20902C23.0754 6.28902 22.5593 8.54294 22.0423 9.77476C21.0836 12.0889 19.031 14.479 16.9776 15.6835C14.0888 17.3723 10.2412 17.7996 7.00145 16.8096C5.92258 16.4731 4.06677 15.6208 4.06677 15.4698C4.06677 15.4228 4.62873 15.3634 5.31478 15.3469C6.74725 15.3171 8.14894 14.9298 9.38997 14.2208L10.2104 13.7332L9.26746 13.4139C7.92856 12.9568 6.72798 11.9066 6.42368 10.9174C6.332 10.5973 6.36282 10.5816 7.21406 10.5816L8.09454 10.5668L7.35 10.2162C6.46715 9.77398 5.66097 9.02972 5.26657 8.26746C4.97808 7.71963 4.61292 6.33441 4.71883 6.22798C4.75045 6.18259 5.06976 6.27494 5.43334 6.39624C6.48217 6.77737 6.6189 6.68581 6.0111 6.04563C4.87138 4.88815 4.52124 3.16876 5.06818 1.53937L5.32664 0.809198L6.33042 1.79842C8.38461 3.7925 10.8024 4.9805 13.5687 5.32955L14.329 5.42033L14.2832 4.67372C14.1465 2.74068 15.3478 0.974328 17.2487 0.289546C17.9482 0.0453717 19.1353 0.0156326 19.9107 0.227719C20.215 0.318502 20.792 0.623719 21.203 0.897632L21.9483 1.40007L22.7687 1.14024C23.2255 1.00407 23.8333 0.774763 24.1068 0.622937C24.3653 0.485198 24.5929 0.409285 24.5929 0.454676C24.5929 0.712937 24.0301 1.59728 23.5599 2.08407C22.9197 2.76885 23.103 2.82989 24.3953 2.37363C25.1738 2.11928 25.1896 2.11928 25.0379 2.40885Z" fill="white"/>
</svg>
