<svg width="25" height="18" viewBox="0 0 25 18" fill="none" xmlns="http://www.w3.org/2000/svg">
<path d="M7.13744 17.417H3.19345V5.66614H7.13744V17.417Z" fill="white"/>
<path d="M5.16148 4.06017H5.13619C3.81231 4.06017 2.95633 3.15626 2.95633 2.0293C2.95633 0.877304 3.83839 0 5.18678 0C6.53595 0 7.36743 0.876522 7.39193 2.0293C7.39193 3.15783 6.53595 4.06017 5.16148 4.06017Z" fill="white"/>
<path d="M21.3587 17.4115H17.4147V11.1241C17.4147 9.54475 16.8441 8.46788 15.4151 8.46788C14.3267 8.46788 13.6778 9.19414 13.3925 9.89692C13.2889 10.1474 13.2621 10.4987 13.2621 10.8494V17.4115H9.31888C9.31888 17.4115 9.37104 6.76414 9.31888 5.66066H13.2629V7.32527C13.7869 6.52466 14.7251 5.3844 16.8188 5.3844C19.4136 5.3844 21.3587 7.06466 21.3587 10.6733V17.4115Z" fill="white"/>
</svg>
