<svg width="27" height="21" viewBox="0 0 27 21" fill="none" xmlns="http://www.w3.org/2000/svg">
<path d="M20.9426 5.73466C20.9426 5.81799 20.926 5.9005 20.8938 5.97748C20.8616 6.05446 20.8143 6.12439 20.7548 6.18327C20.6952 6.24216 20.6246 6.28885 20.5468 6.32066C20.469 6.35248 20.3856 6.3688 20.3015 6.36869H17.7418C17.5719 6.36869 17.4091 6.30189 17.289 6.18299C17.1689 6.06408 17.1014 5.90281 17.1014 5.73466V3.20012C17.1014 2.84958 17.3878 2.56608 17.7418 2.56608H20.3015C20.6555 2.56608 20.9418 2.84958 20.9418 3.20012L20.9426 5.73466ZM20.9426 17.1417C20.9426 17.5859 20.7509 17.7757 20.3015 17.7757H6.2223C5.77366 17.7757 5.58197 17.5859 5.58197 17.1417V8.27L7.17669 8.61408C7.00163 9.17745 6.91282 9.76361 6.91321 10.353C6.91321 13.7227 9.7633 16.4592 13.2758 16.4592C16.7915 16.4592 19.6399 13.7243 19.6399 10.353C19.6399 9.74727 19.5478 9.16573 19.3765 8.61408L20.941 8.27V17.1417H20.9426ZM13.2766 6.18858C15.5475 6.18858 17.3878 7.955 17.3878 10.1333C17.3878 12.3117 15.5475 14.0781 13.2766 14.0781C11.0064 14.0781 9.16539 12.3101 9.16539 10.1333C9.16539 7.95339 11.0064 6.18858 13.2766 6.18858ZM20.9418 0.0323486H5.58279C4.13572 0.0323486 3.02145 1.13566 3.02145 2.56769V17.7757C3.02145 19.207 4.13572 20.3103 5.58197 20.3103H20.941C22.3864 20.3103 23.5007 19.207 23.5007 17.7757V2.56689C23.5023 1.13485 22.3864 0.0323486 20.9426 0.0323486H20.9418Z" fill="white"/>
</svg>
